# This file uses centimeters as units for non-parametric coordinates.

mtllib WOOD.mtl
g default
v -1.237960 0.678106 -0.623156
v 1.237960 0.678106 -0.623156
v -1.237960 2.703591 -0.623156
v 1.237960 2.703591 -0.623156
v -1.179665 4.633697 -0.555744
v 1.179666 4.633697 -0.555744
v -1.085279 6.677346 -0.446596
v 1.085279 6.677346 -0.446596
v -1.085279 6.677346 -3.662849
v 1.085279 6.677346 -3.662849
v -1.179665 4.633697 -3.553701
v 1.179666 4.633697 -3.553701
v -1.237960 2.703591 -3.486289
v 1.237960 2.703591 -3.486289
v -1.237960 0.678106 -3.486289
v 1.237960 0.678106 -3.486289
v -3.970900 8.815541 -0.028012
v -3.674730 8.952639 -0.319135
v -0.879042 8.501791 -0.208106
v -0.843494 8.816264 -0.288032
v -0.828078 8.952639 -0.549297
v 0.879043 8.501791 -0.208106
v 0.843494 8.816264 -0.288032
v 0.828078 8.952639 -0.549297
v 3.674730 8.952639 -0.319135
v 3.970900 8.815541 -0.028012
v -3.674730 8.952639 -3.790309
v -3.970900 8.815541 -4.081431
v -0.828078 8.952639 -3.560147
v -0.843494 8.816264 -3.821414
v -0.879042 8.501791 -3.901338
v 0.828078 8.952639 -3.560147
v 0.843494 8.816264 -3.821414
v 0.879043 8.501791 -3.901338
v 3.666455 8.952639 -3.782035
v 3.968316 8.815495 -4.078846
v -3.713881 0.678106 -0.664555
v -3.463723 0.678106 -0.434684
v -3.463877 2.707783 -0.434514
v -3.714033 2.708607 -0.664387
v 3.713881 0.678106 -0.664555
v 3.463723 0.678106 -0.434684
v 3.463877 2.707783 -0.434514
v 3.714033 2.708607 -0.664387
v -3.522570 4.644267 -0.356747
v -3.772761 4.646348 -0.586574
v 3.522570 4.644267 -0.356747
v 3.772761 4.646348 -0.586574
v -3.866562 6.677346 -0.462249
v -3.616434 6.677346 -0.232265
v 3.616434 6.677346 -0.232265
v 3.866562 6.677346 -0.462249
v -3.616434 6.677346 -3.877180
v -3.866562 6.677346 -3.647196
v -3.522570 4.644267 -3.752697
v -3.772761 4.646348 -3.522871
v 3.866562 6.677346 -3.647196
v 3.616434 6.677346 -3.877180
v 3.522570 4.644267 -3.752697
v 3.772761 4.646348 -3.522871
v -3.463877 2.707783 -3.674930
v -3.714033 2.708607 -3.445057
v 3.463877 2.707783 -3.674930
v 3.714033 2.708607 -3.445057
v -3.713881 0.678106 -3.444890
v -3.463723 0.678106 -3.674760
v 3.713881 0.678106 -3.444890
v 3.463723 0.678106 -3.674760
v -3.823295 8.504265 0.041552
v -4.022006 8.659992 0.017366
v -4.073102 8.504475 -0.188778
v 4.073102 8.504475 -0.188778
v 4.022006 8.659992 0.017366
v 3.823295 8.504265 0.041552
v -4.073102 8.504475 -3.920667
v -4.022006 8.659992 -4.126810
v -3.823295 8.504265 -4.150996
v 3.823295 8.504265 -4.150996
v 4.020935 8.659311 -4.125714
v 4.073102 8.504475 -3.920667
vt 0.632387 0.377541
vt 0.626647 0.381675
vt 0.620908 0.362898
vt 0.620908 0.022972
vt 0.626621 0.004295
vt 0.632385 0.008564
vt 0.620900 0.383878
vt 0.553481 0.337988
vt 0.553481 0.047881
vt 0.620900 0.001992
vt 0.553481 0.358936
vt 0.478531 0.326664
vt 0.478531 0.059206
vt 0.553481 0.026933
vt 0.478454 0.347598
vt 0.407022 0.319576
vt 0.407022 0.066294
vt 0.478454 0.038272
vt 0.406992 0.340514
vt 0.332090 0.319561
vt 0.332090 0.066309
vt 0.406992 0.045355
vt 0.332090 0.340499
vt 0.332090 0.045371
vt 0.907129 0.408531
vt 0.912868 0.389755
vt 0.918608 0.393888
vt 0.918608 0.763101
vt 0.912868 0.767234
vt 0.907129 0.748457
vt 0.907121 0.387552
vt 0.907121 0.769437
vt 0.839702 0.723548
vt 0.839702 0.433441
vt 0.839702 0.412493
vt 0.839702 0.744496
vt 0.764752 0.712223
vt 0.764752 0.444765
vt 0.764675 0.423831
vt 0.764675 0.733157
vt 0.693243 0.705136
vt 0.693243 0.451853
vt 0.693213 0.430915
vt 0.693213 0.726074
vt 0.618311 0.705120
vt 0.618311 0.451869
vt 0.618311 0.430930
vt 0.618311 0.726058
vt 0.019001 0.898346
vt 0.019001 0.798683
vt 0.279794 0.798683
vt 0.279794 0.898346
vt 0.001834 0.709091
vt 0.022772 0.699021
vt 0.276023 0.699021
vt 0.296962 0.709091
vt 0.022772 0.998008
vt 0.001834 0.987939
vt 0.296962 0.987939
vt 0.276023 0.998008
vt 0.197062 0.055811
vt 0.197683 0.032013
vt 0.323569 0.008329
vt 0.311647 0.034846
vt 0.130398 0.055811
vt 0.129777 0.032013
vt 0.199114 0.024733
vt 0.317628 0.001992
vt 0.325626 0.004195
vt 0.323465 0.377306
vt 0.311314 0.350270
vt 0.197062 0.330059
vt 0.015812 0.034846
vt 0.003891 0.008329
vt 0.128346 0.024733
vt 0.130398 0.330059
vt 0.197683 0.353857
vt 0.015812 0.351024
vt 0.003891 0.377541
vt 0.001834 0.004195
vt 0.009832 0.001992
vt 0.129777 0.353857
vt 0.199114 0.361137
vt 0.325583 0.381575
vt 0.317628 0.383878
vt 0.128346 0.361137
vt 0.009832 0.383878
vt 0.001834 0.381675
vt 0.323854 0.591281
vt 0.323854 0.491618
vt 0.398601 0.491618
vt 0.398601 0.591281
vt 0.323854 0.402026
vt 0.398756 0.402019
vt 0.469828 0.493965
vt 0.469828 0.588934
vt 0.398756 0.680880
vt 0.323854 0.680874
vt 0.470218 0.399657
vt 0.545245 0.497764
vt 0.545245 0.585135
vt 0.470218 0.683242
vt 0.545245 0.395879
vt 0.612573 0.506066
vt 0.612573 0.576833
vt 0.545245 0.687021
vt 0.612664 0.387552
vt 0.612664 0.695347
vt 0.096816 0.585135
vt 0.096816 0.497764
vt 0.172233 0.493965
vt 0.172233 0.588934
vt 0.029488 0.576833
vt 0.029488 0.506066
vt 0.096816 0.395879
vt 0.171843 0.399657
vt 0.243460 0.491619
vt 0.243460 0.591281
vt 0.096816 0.687021
vt 0.171843 0.683242
vt 0.029398 0.387552
vt 0.029398 0.695347
vt 0.243306 0.402019
vt 0.318207 0.491619
vt 0.318207 0.591281
vt 0.243306 0.680880
vt 0.318207 0.402026
vt 0.318207 0.680874
vn 0.040093 -0.000018 0.999196
vn -0.040093 -0.000018 0.999196
vn -0.040928 -0.017605 0.999007
vn 0.040928 -0.017605 0.999007
vn -0.042649 -0.045927 0.998034
vn 0.042649 -0.045927 0.998034
vn -0.046693 -0.092853 0.994584
vn 0.046693 -0.092853 0.994584
vn 0.046693 -0.092853 -0.994584
vn -0.046693 -0.092853 -0.994584
vn -0.042649 -0.045927 -0.998034
vn 0.042649 -0.045927 -0.998034
vn -0.040928 -0.017605 -0.999007
vn 0.040928 -0.017605 -0.999007
vn -0.040093 -0.000018 -0.999196
vn 0.040093 -0.000018 -0.999196
vn 0.000000 -1.000000 0.000000
vn 0.000000 -1.000000 0.000000
vn 0.000000 -1.000000 0.000000
vn 0.000000 -1.000000 0.000000
vn 0.000000 -1.000000 0.000000
vn 0.000000 -1.000000 0.000000
vn 0.000000 -1.000000 0.000000
vn 0.000000 -1.000000 0.000000
vn -0.001776 0.999356 0.035845
vn -0.025409 0.886935 0.461194
vn -0.037665 0.886941 0.460345
vn 0.074694 0.995943 0.050179
vn -0.048322 0.246029 0.968057
vn -0.048495 -0.074951 0.996007
vn -0.084145 -0.041224 0.995600
vn -0.081179 0.245497 0.965992
vn -0.081179 0.245497 0.965992
vn 0.048495 -0.074951 0.996007
vn -0.074685 0.995941 0.050239
vn 0.001773 0.999358 0.035784
vn 0.001773 0.999358 -0.035784
vn -0.074684 0.995941 -0.050239
vn -0.001747 0.999352 -0.035955
vn 0.074422 0.995975 -0.049961
vn 0.048495 -0.074951 -0.996007
vn -0.048455 -0.074563 -0.996038
vn 0.037665 0.886941 0.460345
vn 0.025409 0.886935 0.461194
vn 0.081179 0.245497 0.965992
vn 0.081179 0.245497 0.965992
vn 0.084145 -0.041224 0.995600
vn 0.048322 0.246029 0.968057
vn 0.416830 0.908984 -0.000608
vn 0.416830 0.908984 -0.000608
vn 0.948854 0.315716 -0.000307
vn 0.948854 0.315716 -0.000307
vn 0.999633 0.027101 -0.000102
vn 0.999634 0.027062 -0.000102
vn 0.948854 0.315716 -0.000307
vn 0.948854 0.315716 -0.000307
vn -0.420076 0.907489 0.000000
vn -0.420076 0.907489 0.000000
vn 0.037665 0.886941 -0.460344
vn 0.025409 0.886936 -0.461193
vn 0.048322 0.246026 -0.968058
vn -0.048080 0.248088 -0.967544
vn -0.024722 0.888308 -0.458583
vn -0.080738 0.248962 -0.965142
vn -0.080738 0.248962 -0.965142
vn -0.084053 -0.040495 -0.995638
vn -0.036578 0.888976 -0.456490
vn 0.000000 -1.000000 0.000000
vn 0.000000 -1.000000 0.000000
vn 0.000000 -1.000000 0.000000
vn 0.000000 -1.000000 0.000000
vn -0.999667 0.025819 0.000000
vn -0.950037 0.312138 0.000000
vn -0.950037 0.312138 0.000000
vn -0.950037 0.312138 0.000000
vn -0.950037 0.312138 0.000000
vn -0.999667 0.025819 0.000000
vn 0.084145 -0.041224 -0.995600
vn 0.081179 0.245496 -0.965993
vn 0.081179 0.245496 -0.965993
vn -0.676622 -0.000112 0.736331
vn -0.676622 -0.000112 0.736331
vn -0.676459 -0.025062 0.736054
vn -0.676475 -0.023915 0.736077
vn -0.675394 -0.064127 0.734664
vn -0.675452 -0.062623 0.734740
vn 0.676622 -0.000112 0.736331
vn 0.676622 -0.000112 0.736331
vn 0.676475 -0.023914 0.736077
vn 0.676458 -0.025062 0.736054
vn 0.675452 -0.062623 0.734740
vn 0.675394 -0.064127 0.734664
vn -0.671052 -0.133770 0.729243
vn -0.672109 -0.120850 0.730524
vn 0.672109 -0.120850 0.730524
vn 0.671052 -0.133770 0.729243
vn -0.663668 -0.200488 0.720659
vn -0.665182 -0.189112 0.722336
vn 0.665182 -0.189112 0.722336
vn 0.663668 -0.200488 0.720659
vn -0.671052 -0.133770 -0.729243
vn -0.672109 -0.120850 -0.730524
vn -0.665182 -0.189112 -0.722337
vn -0.663668 -0.200488 -0.720659
vn -0.675393 -0.064127 -0.734664
vn -0.675451 -0.062623 -0.734741
vn -0.676458 -0.025062 -0.736055
vn -0.676475 -0.023915 -0.736077
vn 0.672109 -0.120850 -0.730524
vn 0.671052 -0.133770 -0.729243
vn 0.663727 -0.200060 -0.720724
vn 0.665196 -0.189001 -0.722352
vn 0.675451 -0.062623 -0.734741
vn 0.675394 -0.064127 -0.734664
vn 0.676475 -0.023915 -0.736077
vn 0.676458 -0.025062 -0.736055
vn -0.676622 -0.000112 -0.736331
vn -0.676622 -0.000112 -0.736331
vn 0.676621 -0.000112 -0.736331
vn 0.676621 -0.000112 -0.736331
vn 0.084400 -0.018834 0.996254
vn 0.084410 -0.000039 0.996431
vn -0.084410 -0.000039 0.996431
vn -0.084400 -0.018834 0.996254
vn 0.084297 -0.048203 0.995274
vn -0.084297 -0.048203 0.995274
vn 0.083941 -0.101316 0.991307
vn -0.083941 -0.101316 0.991307
vn 0.083941 -0.101315 -0.991307
vn 0.084297 -0.048203 -0.995274
vn -0.083941 -0.101315 -0.991307
vn -0.084297 -0.048203 -0.995274
vn 0.084400 -0.018834 -0.996254
vn -0.084400 -0.018834 -0.996254
vn 0.084410 -0.000039 -0.996431
vn -0.084410 -0.000039 -0.996431
vn 0.999880 -0.015506 0.000000
vn 1.000000 -0.000075 0.000000
vn 1.000000 -0.000075 0.000000
vn 0.999880 -0.015506 0.000000
vn 0.999228 -0.039286 0.000000
vn 0.999228 -0.039286 0.000000
vn 0.996416 -0.084588 0.000000
vn 0.996416 -0.084588 0.000000
vn -0.999880 -0.015506 0.000000
vn -1.000000 -0.000075 0.000000
vn -1.000000 -0.000075 0.000000
vn -0.999880 -0.015506 0.000000
vn -0.999228 -0.039286 0.000000
vn -0.999228 -0.039286 0.000000
vn -0.996416 -0.084588 0.000000
vn -0.996416 -0.084588 0.000000
vn -0.542232 -0.600652 0.587539
vn 0.542232 -0.600652 0.587539
vn -0.542233 -0.600650 -0.587540
vn 0.543947 -0.597268 -0.589401
s 1
g pCube1
usemtl initialShadingGroup
f 1/89/1 2/90/2 4/91/3 3/92/4
f 3/92/4 4/91/3 6/95/5 5/96/6
f 5/96/6 6/95/5 8/100/7 7/101/8
s 2
f 9/109/9 10/110/10 12/111/11 11/112/12
f 11/112/12 12/111/11 14/117/13 13/118/14
f 13/118/14 14/117/13 16/124/15 15/125/16
s 3
f 15/49/17 16/50/18 2/51/19 1/52/20
f 16/50/18 68/53/21 67/54/22 41/55/23 42/56/24 2/51/19
s 4
f 24/61/25 23/62/26 26/63/27 25/64/28
s 1
f 23/62/29 22/67/30 74/68/31 73/69/32 26/63/33
f 7/101/8 8/100/7 22/104/30 19/105/34
s 4
f 18/73/35 21/65/36 29/76/37 27/78/38
f 21/65/36 24/61/25 32/72/39 29/76/37
f 24/61/25 25/64/28 35/71/40 32/72/39
s 2
f 31/113/41 34/114/42 10/110/10 9/109/9
s 4
f 18/73/35 17/74/43 20/66/44 21/65/36
s 1
f 17/74/45 70/80/46 69/81/47 19/75/34 20/66/48
s 4
f 21/65/36 20/66/44 23/62/26 24/61/25
s 1
f 20/66/48 19/75/34 22/67/30 23/62/29
s 4
f 25/64/28 26/63/49 36/70/50 35/71/40
s 7
f 26/1/51 73/2/52 72/3/53 80/4/54 79/5/55 36/6/56
s 4
f 17/74/57 18/73/35 27/78/38 28/79/58
f 28/79/59 27/78/38 29/76/37 30/82/60
s 2
f 31/86/41 30/82/61 33/77/62 34/83/42
s 4
f 30/82/60 29/76/37 32/72/39 33/77/63
s 2
f 34/83/42 33/77/62 36/70/64 79/84/65 78/85/66
s 4
f 33/77/63 32/72/39 35/71/40 36/70/67
s 3
f 65/57/68 66/58/69 15/49/17 1/52/20 38/59/70 37/60/71
s 8
f 71/25/72 70/26/73 17/27/74 28/28/75 76/29/76 75/30/77
s 2
f 77/87/78 76/88/79 28/79/80 30/82/61 31/86/41
s 9
f 37/46/81 38/47/82 39/43/83 40/42/84
f 40/42/84 39/43/83 45/39/85 46/38/86
s 10
f 42/23/87 41/20/88 44/16/89 43/19/90
f 43/19/90 44/16/89 48/12/91 47/15/92
s 9
f 46/38/86 45/39/85 50/35/93 49/34/94
s 10
f 47/15/92 48/12/91 52/8/95 51/11/96
s 9
f 49/34/94 50/35/93 69/31/97 71/25/98
s 10
f 51/11/96 52/8/95 72/3/99 74/7/100
s 11
f 53/36/101 54/33/102 75/30/103 77/32/104
f 54/33/102 53/36/101 55/40/105 56/37/106
f 56/37/106 55/40/105 61/44/107 62/41/108
s 12
f 57/9/109 58/14/110 78/10/111 80/4/112
f 58/14/110 57/9/109 60/13/113 59/18/114
f 59/18/114 60/13/113 64/17/115 63/22/116
s 11
f 62/41/108 61/44/107 66/48/117 65/45/118
s 12
f 63/22/116 64/17/115 67/21/119 68/24/120
s 1
f 39/97/121 38/98/122 1/89/1 3/92/4
f 2/90/2 42/93/123 43/94/124 4/91/3
f 39/97/121 3/92/4 5/96/6 45/102/125
f 4/91/3 43/94/124 47/99/126 6/95/5
f 45/102/125 5/96/6 7/101/8 50/106/127
f 6/95/5 47/99/126 51/103/128 8/100/7
s 2
f 53/119/129 9/109/9 11/112/12 55/120/130
f 10/110/10 58/115/131 59/116/132 12/111/11
f 55/120/130 11/112/12 13/118/14 61/126/133
f 12/111/11 59/116/132 63/123/134 14/117/13
f 61/126/133 13/118/14 15/125/16 66/128/135
f 14/117/13 63/123/134 68/127/136 16/124/15
s 7
f 44/16/137 41/20/138 67/21/139 64/17/140
f 44/16/137 64/17/140 60/13/141 48/12/142
f 48/12/142 60/13/141 57/9/143 52/8/144
s 8
f 62/41/145 65/45/146 37/46/147 40/42/148
f 62/41/145 40/42/148 46/38/149 56/37/150
f 56/37/150 46/38/149 49/34/151 54/33/152
s 1
f 50/106/127 7/101/8 19/105/34 69/108/47
f 8/100/7 51/103/128 74/107/31 22/104/30
s 2
f 53/119/129 77/122/78 31/113/41 9/109/9
f 34/114/42 78/121/66 58/115/131 10/110/10
s 7
f 52/8/144 57/9/143 80/4/54 72/3/53
s 8
f 54/33/152 49/34/151 71/25/72 75/30/77
s 9
f 69/31/97 70/26/153 71/25/98
s 10
f 72/3/99 73/2/154 74/7/100
s 11
f 75/30/103 76/29/155 77/32/104
s 12
f 78/10/111 79/5/156 80/4/112
