# This file uses centimeters as units for non-parametric coordinates.

mtllib egg.mtl
g default
v -2.976194 0.758323 -0.475408
v -3.586678 0.758323 -0.475409
v -3.891453 0.758323 -0.000000
v -3.586678 0.758323 0.475408
v -2.976194 0.758323 0.475408
v -2.671419 0.758323 0.000000
v -2.731620 1.252024 -0.908236
v -3.831252 1.252024 -0.908236
v -4.174584 1.252024 -0.000000
v -3.831252 1.252024 0.908236
v -2.731620 1.252024 0.908236
v -2.388288 1.252024 -0.000000
v -2.649299 1.858839 -0.934847
v -3.913572 1.858839 -0.934847
v -4.234381 1.858839 -0.000000
v -3.913573 1.858839 0.934847
v -2.649300 1.858839 0.934847
v -2.328491 1.858839 0.000000
v -2.739992 2.299715 -0.844583
v -3.822880 2.299715 -0.844583
v -4.142150 2.299715 -0.000000
v -3.822880 2.299715 0.844583
v -2.739992 2.299715 0.844583
v -2.420723 2.299715 0.000000
v -2.968833 3.125541 -0.487620
v -3.594039 3.125541 -0.487620
v -3.770861 3.125541 -0.000000
v -3.594039 3.125541 0.487620
v -2.968834 3.125541 0.487620
v -2.792011 3.125541 0.000000
v -3.281436 0.728727 0.000000
v -3.281436 3.195744 0.000000
vt 0.000000 0.166667
vt 0.166667 0.166667
vt 0.333333 0.166667
vt 0.500000 0.166667
vt 0.666667 0.166667
vt 0.833333 0.166667
vt 1.000000 0.166667
vt 0.000000 0.333333
vt 0.166667 0.333333
vt 0.333333 0.333333
vt 0.500000 0.333333
vt 0.666667 0.333333
vt 0.833333 0.333333
vt 1.000000 0.333333
vt 0.000000 0.500000
vt 0.166667 0.500000
vt 0.333333 0.500000
vt 0.500000 0.500000
vt 0.666667 0.500000
vt 0.833333 0.500000
vt 1.000000 0.500000
vt 0.000000 0.666667
vt 0.166667 0.666667
vt 0.333333 0.666667
vt 0.500000 0.666667
vt 0.666667 0.666667
vt 0.833333 0.666667
vt 1.000000 0.666667
vt 0.000000 0.833333
vt 0.166667 0.833333
vt 0.333333 0.833333
vt 0.500000 0.833333
vt 0.666667 0.833333
vt 0.833333 0.833333
vt 1.000000 0.833333
vt 0.083333 0.000000
vt 0.250000 0.000000
vt 0.416667 0.000000
vt 0.583333 0.000000
vt 0.750000 0.000000
vt 0.916667 0.000000
vt 0.083333 1.000000
vt 0.250000 1.000000
vt 0.416667 1.000000
vt 0.583333 1.000000
vt 0.750000 1.000000
vt 0.916667 1.000000
vn 0.000000 -0.659228 -0.751943
vn 0.000000 -0.659228 -0.751943
vn 0.000000 -0.659228 -0.751943
vn 0.000000 -0.659228 -0.751943
vn -0.752357 -0.556567 -0.352408
vn -0.752357 -0.556567 -0.352408
vn -0.752357 -0.556567 -0.352408
vn -0.752357 -0.556567 -0.352408
vn -0.752358 -0.556567 0.352408
vn -0.752358 -0.556567 0.352408
vn -0.752358 -0.556567 0.352408
vn -0.752357 -0.556567 0.352408
vn -0.000000 -0.659228 0.751943
vn -0.000000 -0.659228 0.751943
vn -0.000000 -0.659228 0.751943
vn -0.000000 -0.659228 0.751943
vn 0.752358 -0.556567 0.352408
vn 0.752358 -0.556567 0.352408
vn 0.752358 -0.556567 0.352408
vn 0.752358 -0.556567 0.352408
vn 0.752358 -0.556567 -0.352408
vn 0.752358 -0.556567 -0.352408
vn 0.752358 -0.556567 -0.352408
vn 0.752358 -0.556567 -0.352408
vn 0.000000 -0.043812 -0.999040
vn 0.000000 -0.043812 -0.999040
vn 0.000000 -0.043812 -0.999040
vn 0.000000 -0.043812 -0.999040
vn -0.934346 -0.116795 -0.336684
vn -0.934346 -0.116795 -0.336684
vn -0.934346 -0.116795 -0.336684
vn -0.934346 -0.116795 -0.336684
vn -0.934346 -0.116795 0.336684
vn -0.934346 -0.116795 0.336684
vn -0.934346 -0.116795 0.336684
vn -0.934346 -0.116795 0.336684
vn -0.000000 -0.043812 0.999040
vn -0.000000 -0.043812 0.999040
vn -0.000000 -0.043812 0.999040
vn -0.000000 -0.043812 0.999040
vn 0.934346 -0.116795 0.336684
vn 0.934346 -0.116795 0.336684
vn 0.934346 -0.116795 0.336684
vn 0.934346 -0.116795 0.336684
vn 0.934346 -0.116795 -0.336684
vn 0.934346 -0.116795 -0.336684
vn 0.934346 -0.116795 -0.336684
vn 0.934346 -0.116795 -0.336684
vn 0.000000 0.200578 -0.979678
vn 0.000000 0.200578 -0.979678
vn 0.000000 0.200578 -0.979678
vn 0.000000 0.200578 -0.979678
vn -0.917060 0.224017 -0.329875
vn -0.917060 0.224017 -0.329875
vn -0.917060 0.224017 -0.329875
vn -0.917060 0.224017 -0.329875
vn -0.917060 0.224017 0.329875
vn -0.917060 0.224017 0.329875
vn -0.917060 0.224017 0.329875
vn -0.917060 0.224017 0.329875
vn -0.000000 0.200578 0.979678
vn -0.000000 0.200578 0.979678
vn -0.000000 0.200579 0.979678
vn -0.000000 0.200579 0.979678
vn 0.917060 0.224018 0.329875
vn 0.917060 0.224018 0.329875
vn 0.917060 0.224018 0.329875
vn 0.917060 0.224018 0.329875
vn 0.917060 0.224018 -0.329875
vn 0.917060 0.224018 -0.329875
vn 0.917060 0.224018 -0.329875
vn 0.917060 0.224018 -0.329875
vn 0.000000 0.396770 -0.917918
vn 0.000000 0.396770 -0.917918
vn 0.000000 0.396770 -0.917918
vn 0.000000 0.396770 -0.917918
vn -0.865271 0.384036 -0.322214
vn -0.865271 0.384036 -0.322214
vn -0.865271 0.384036 -0.322214
vn -0.865271 0.384036 -0.322214
vn -0.865271 0.384036 0.322214
vn -0.865271 0.384036 0.322214
vn -0.865271 0.384036 0.322214
vn -0.865271 0.384036 0.322214
vn 0.000000 0.396770 0.917918
vn 0.000000 0.396770 0.917918
vn 0.000000 0.396770 0.917918
vn 0.000000 0.396770 0.917918
vn 0.865271 0.384036 0.322214
vn 0.865271 0.384036 0.322214
vn 0.865271 0.384036 0.322214
vn 0.865271 0.384036 0.322214
vn 0.865271 0.384036 -0.322214
vn 0.865271 0.384036 -0.322214
vn 0.865271 0.384036 -0.322214
vn 0.865271 0.384036 -0.322214
vn 0.000000 -0.998068 -0.062134
vn 0.000000 -0.998068 -0.062134
vn 0.000000 -0.998068 -0.062134
vn -0.048437 -0.998344 -0.031052
vn -0.048437 -0.998343 -0.031052
vn -0.048437 -0.998343 -0.031052
vn -0.048437 -0.998344 0.031052
vn -0.048437 -0.998343 0.031052
vn -0.048437 -0.998343 0.031052
vn -0.000000 -0.998068 0.062134
vn -0.000000 -0.998068 0.062134
vn -0.000000 -0.998068 0.062134
vn 0.048437 -0.998343 0.031052
vn 0.048437 -0.998344 0.031052
vn 0.048437 -0.998343 0.031052
vn 0.048437 -0.998344 -0.031052
vn 0.048437 -0.998344 -0.031052
vn 0.048437 -0.998344 -0.031052
vn 0.000000 0.989795 -0.142502
vn 0.000000 0.989795 -0.142502
vn 0.000000 0.989795 -0.142502
vn -0.141799 0.988559 -0.051420
vn -0.141799 0.988559 -0.051420
vn -0.141799 0.988559 -0.051420
vn -0.141799 0.988559 0.051420
vn -0.141799 0.988559 0.051420
vn -0.141799 0.988559 0.051420
vn -0.000000 0.989795 0.142501
vn -0.000000 0.989795 0.142501
vn -0.000000 0.989795 0.142501
vn 0.141799 0.988559 0.051420
vn 0.141799 0.988559 0.051420
vn 0.141799 0.988559 0.051420
vn 0.141799 0.988559 -0.051420
vn 0.141799 0.988559 -0.051420
vn 0.141799 0.988559 -0.051420
s off
g pSphere4
usemtl initialShadingGroup
f 1/1/1 2/2/2 8/9/3 7/8/4
f 2/2/5 3/3/6 9/10/7 8/9/8
f 3/3/9 4/4/10 10/11/11 9/10/12
f 4/4/13 5/5/14 11/12/15 10/11/16
f 5/5/17 6/6/18 12/13/19 11/12/20
f 6/6/21 1/7/22 7/14/23 12/13/24
f 7/8/25 8/9/26 14/16/27 13/15/28
f 8/9/29 9/10/30 15/17/31 14/16/32
f 9/10/33 10/11/34 16/18/35 15/17/36
f 10/11/37 11/12/38 17/19/39 16/18/40
f 11/12/41 12/13/42 18/20/43 17/19/44
f 12/13/45 7/14/46 13/21/47 18/20/48
f 13/15/49 14/16/50 20/23/51 19/22/52
f 14/16/53 15/17/54 21/24/55 20/23/56
f 15/17/57 16/18/58 22/25/59 21/24/60
f 16/18/61 17/19/62 23/26/63 22/25/64
f 17/19/65 18/20/66 24/27/67 23/26/68
f 18/20/69 13/21/70 19/28/71 24/27/72
f 19/22/73 20/23/74 26/30/75 25/29/76
f 20/23/77 21/24/78 27/31/79 26/30/80
f 21/24/81 22/25/82 28/32/83 27/31/84
f 22/25/85 23/26/86 29/33/87 28/32/88
f 23/26/89 24/27/90 30/34/91 29/33/92
f 24/27/93 19/28/94 25/35/95 30/34/96
f 2/2/97 1/1/98 31/36/99
f 3/3/100 2/2/101 31/37/102
f 4/4/103 3/3/104 31/38/105
f 5/5/106 4/4/107 31/39/108
f 6/6/109 5/5/110 31/40/111
f 1/7/112 6/6/113 31/41/114
f 25/29/115 26/30/116 32/42/117
f 26/30/118 27/31/119 32/43/120
f 27/31/121 28/32/122 32/44/123
f 28/32/124 29/33/125 32/45/126
f 29/33/127 30/34/128 32/46/129
f 30/34/130 25/35/131 32/47/132
g default
v -2.976194 0.758323 -0.475408
v -3.586678 0.758323 -0.475409
v -3.891453 0.758323 -0.000000
v -3.586678 0.758323 0.475408
v -2.976194 0.758323 0.475408
v -2.671419 0.758323 0.000000
v -2.731620 1.252024 -0.908236
v -3.831252 1.252024 -0.908236
v -4.174584 1.252024 -0.000000
v -3.831252 1.252024 0.908236
v -2.731620 1.252024 0.908236
v -2.388288 1.252024 -0.000000
v -2.649299 1.858839 -0.934847
v -3.913572 1.858839 -0.934847
v -4.234381 1.858839 -0.000000
v -3.913573 1.858839 0.934847
v -2.649300 1.858839 0.934847
v -2.328491 1.858839 0.000000
v -2.739992 2.299715 -0.844583
v -3.822880 2.299715 -0.844583
v -4.142150 2.299715 -0.000000
v -3.822880 2.299715 0.844583
v -2.739992 2.299715 0.844583
v -2.420723 2.299715 0.000000
v -2.968833 3.125541 -0.487620
v -3.594039 3.125541 -0.487620
v -3.770861 3.125541 -0.000000
v -3.594039 3.125541 0.487620
v -2.968834 3.125541 0.487620
v -2.792011 3.125541 0.000000
v -3.281436 0.728727 0.000000
v -3.281436 3.195744 0.000000
vt 0.000000 0.166667
vt 0.166667 0.166667
vt 0.333333 0.166667
vt 0.500000 0.166667
vt 0.666667 0.166667
vt 0.833333 0.166667
vt 1.000000 0.166667
vt 0.000000 0.333333
vt 0.166667 0.333333
vt 0.333333 0.333333
vt 0.500000 0.333333
vt 0.666667 0.333333
vt 0.833333 0.333333
vt 1.000000 0.333333
vt 0.000000 0.500000
vt 0.166667 0.500000
vt 0.333333 0.500000
vt 0.500000 0.500000
vt 0.666667 0.500000
vt 0.833333 0.500000
vt 1.000000 0.500000
vt 0.000000 0.666667
vt 0.166667 0.666667
vt 0.333333 0.666667
vt 0.500000 0.666667
vt 0.666667 0.666667
vt 0.833333 0.666667
vt 1.000000 0.666667
vt 0.000000 0.833333
vt 0.166667 0.833333
vt 0.333333 0.833333
vt 0.500000 0.833333
vt 0.666667 0.833333
vt 0.833333 0.833333
vt 1.000000 0.833333
vt 0.083333 0.000000
vt 0.250000 0.000000
vt 0.416667 0.000000
vt 0.583333 0.000000
vt 0.750000 0.000000
vt 0.916667 0.000000
vt 0.083333 1.000000
vt 0.250000 1.000000
vt 0.416667 1.000000
vt 0.583333 1.000000
vt 0.750000 1.000000
vt 0.916667 1.000000
vn 0.000000 -0.659228 -0.751943
vn 0.000000 -0.659228 -0.751943
vn 0.000000 -0.659228 -0.751943
vn 0.000000 -0.659228 -0.751943
vn -0.752357 -0.556567 -0.352408
vn -0.752357 -0.556567 -0.352408
vn -0.752357 -0.556567 -0.352408
vn -0.752357 -0.556567 -0.352408
vn -0.752358 -0.556567 0.352408
vn -0.752358 -0.556567 0.352408
vn -0.752358 -0.556567 0.352408
vn -0.752357 -0.556567 0.352408
vn -0.000000 -0.659228 0.751943
vn -0.000000 -0.659228 0.751943
vn -0.000000 -0.659228 0.751943
vn -0.000000 -0.659228 0.751943
vn 0.752358 -0.556567 0.352408
vn 0.752358 -0.556567 0.352408
vn 0.752358 -0.556567 0.352408
vn 0.752358 -0.556567 0.352408
vn 0.752358 -0.556567 -0.352408
vn 0.752358 -0.556567 -0.352408
vn 0.752358 -0.556567 -0.352408
vn 0.752358 -0.556567 -0.352408
vn 0.000000 -0.043812 -0.999040
vn 0.000000 -0.043812 -0.999040
vn 0.000000 -0.043812 -0.999040
vn 0.000000 -0.043812 -0.999040
vn -0.934346 -0.116795 -0.336684
vn -0.934346 -0.116795 -0.336684
vn -0.934346 -0.116795 -0.336684
vn -0.934346 -0.116795 -0.336684
vn -0.934346 -0.116795 0.336684
vn -0.934346 -0.116795 0.336684
vn -0.934346 -0.116795 0.336684
vn -0.934346 -0.116795 0.336684
vn -0.000000 -0.043812 0.999040
vn -0.000000 -0.043812 0.999040
vn -0.000000 -0.043812 0.999040
vn -0.000000 -0.043812 0.999040
vn 0.934346 -0.116795 0.336684
vn 0.934346 -0.116795 0.336684
vn 0.934346 -0.116795 0.336684
vn 0.934346 -0.116795 0.336684
vn 0.934346 -0.116795 -0.336684
vn 0.934346 -0.116795 -0.336684
vn 0.934346 -0.116795 -0.336684
vn 0.934346 -0.116795 -0.336684
vn 0.000000 0.200578 -0.979678
vn 0.000000 0.200578 -0.979678
vn 0.000000 0.200578 -0.979678
vn 0.000000 0.200578 -0.979678
vn -0.917060 0.224017 -0.329875
vn -0.917060 0.224017 -0.329875
vn -0.917060 0.224017 -0.329875
vn -0.917060 0.224017 -0.329875
vn -0.917060 0.224017 0.329875
vn -0.917060 0.224017 0.329875
vn -0.917060 0.224017 0.329875
vn -0.917060 0.224017 0.329875
vn -0.000000 0.200578 0.979678
vn -0.000000 0.200578 0.979678
vn -0.000000 0.200579 0.979678
vn -0.000000 0.200579 0.979678
vn 0.917060 0.224018 0.329875
vn 0.917060 0.224018 0.329875
vn 0.917060 0.224018 0.329875
vn 0.917060 0.224018 0.329875
vn 0.917060 0.224018 -0.329875
vn 0.917060 0.224018 -0.329875
vn 0.917060 0.224018 -0.329875
vn 0.917060 0.224018 -0.329875
vn 0.000000 0.396770 -0.917918
vn 0.000000 0.396770 -0.917918
vn 0.000000 0.396770 -0.917918
vn 0.000000 0.396770 -0.917918
vn -0.865271 0.384036 -0.322214
vn -0.865271 0.384036 -0.322214
vn -0.865271 0.384036 -0.322214
vn -0.865271 0.384036 -0.322214
vn -0.865271 0.384036 0.322214
vn -0.865271 0.384036 0.322214
vn -0.865271 0.384036 0.322214
vn -0.865271 0.384036 0.322214
vn 0.000000 0.396770 0.917918
vn 0.000000 0.396770 0.917918
vn 0.000000 0.396770 0.917918
vn 0.000000 0.396770 0.917918
vn 0.865271 0.384036 0.322214
vn 0.865271 0.384036 0.322214
vn 0.865271 0.384036 0.322214
vn 0.865271 0.384036 0.322214
vn 0.865271 0.384036 -0.322214
vn 0.865271 0.384036 -0.322214
vn 0.865271 0.384036 -0.322214
vn 0.865271 0.384036 -0.322214
vn 0.000000 -0.998068 -0.062134
vn 0.000000 -0.998068 -0.062134
vn 0.000000 -0.998068 -0.062134
vn -0.048437 -0.998344 -0.031052
vn -0.048437 -0.998343 -0.031052
vn -0.048437 -0.998343 -0.031052
vn -0.048437 -0.998344 0.031052
vn -0.048437 -0.998343 0.031052
vn -0.048437 -0.998343 0.031052
vn -0.000000 -0.998068 0.062134
vn -0.000000 -0.998068 0.062134
vn -0.000000 -0.998068 0.062134
vn 0.048437 -0.998343 0.031052
vn 0.048437 -0.998344 0.031052
vn 0.048437 -0.998343 0.031052
vn 0.048437 -0.998344 -0.031052
vn 0.048437 -0.998344 -0.031052
vn 0.048437 -0.998344 -0.031052
vn 0.000000 0.989795 -0.142502
vn 0.000000 0.989795 -0.142502
vn 0.000000 0.989795 -0.142502
vn -0.141799 0.988559 -0.051420
vn -0.141799 0.988559 -0.051420
vn -0.141799 0.988559 -0.051420
vn -0.141799 0.988559 0.051420
vn -0.141799 0.988559 0.051420
vn -0.141799 0.988559 0.051420
vn -0.000000 0.989795 0.142501
vn -0.000000 0.989795 0.142501
vn -0.000000 0.989795 0.142501
vn 0.141799 0.988559 0.051420
vn 0.141799 0.988559 0.051420
vn 0.141799 0.988559 0.051420
vn 0.141799 0.988559 -0.051420
vn 0.141799 0.988559 -0.051420
vn 0.141799 0.988559 -0.051420
s off
g pSphere4
f 33/48/133 34/49/134 40/56/135 39/55/136
f 34/49/137 35/50/138 41/57/139 40/56/140
f 35/50/141 36/51/142 42/58/143 41/57/144
f 36/51/145 37/52/146 43/59/147 42/58/148
f 37/52/149 38/53/150 44/60/151 43/59/152
f 38/53/153 33/54/154 39/61/155 44/60/156
f 39/55/157 40/56/158 46/63/159 45/62/160
f 40/56/161 41/57/162 47/64/163 46/63/164
f 41/57/165 42/58/166 48/65/167 47/64/168
f 42/58/169 43/59/170 49/66/171 48/65/172
f 43/59/173 44/60/174 50/67/175 49/66/176
f 44/60/177 39/61/178 45/68/179 50/67/180
f 45/62/181 46/63/182 52/70/183 51/69/184
f 46/63/185 47/64/186 53/71/187 52/70/188
f 47/64/189 48/65/190 54/72/191 53/71/192
f 48/65/193 49/66/194 55/73/195 54/72/196
f 49/66/197 50/67/198 56/74/199 55/73/200
f 50/67/201 45/68/202 51/75/203 56/74/204
f 51/69/205 52/70/206 58/77/207 57/76/208
f 52/70/209 53/71/210 59/78/211 58/77/212
f 53/71/213 54/72/214 60/79/215 59/78/216
f 54/72/217 55/73/218 61/80/219 60/79/220
f 55/73/221 56/74/222 62/81/223 61/80/224
f 56/74/225 51/75/226 57/82/227 62/81/228
f 34/49/229 33/48/230 63/83/231
f 35/50/232 34/49/233 63/84/234
f 36/51/235 35/50/236 63/85/237
f 37/52/238 36/51/239 63/86/240
f 38/53/241 37/52/242 63/87/243
f 33/54/244 38/53/245 63/88/246
f 57/76/247 58/77/248 64/89/249
f 58/77/250 59/78/251 64/90/252
f 59/78/253 60/79/254 64/91/255
f 60/79/256 61/80/257 64/92/258
f 61/80/259 62/81/260 64/93/261
f 62/81/262 57/82/263 64/94/264
